# xmcd
#
# Track frame offsets:
# 150
# 15692
# 24130
# 35945
# 48717
# 61300
# 83915
# 94475
# 105745
# 119590
# 129747
# 140280
# 155922
# 173742
# 182220
# 203635
# 216277
# 227732
#
# Disc length: 3199 seconds
#
#
# Revision: 3
# Processed by: cddbd v1.5.2PL0 Copyright (c) Steve Scherf et al.
# Submitted via: FreeRIP 2.944 
#
DISCID=090c7d12
DTITLE=Various Artist - The Music That Made Memphis
DYEAR=1996
DGENRE=Blues
TTITLE0=Introduction by Rufus Thomas
TTITLE1=Great Balls of Fire - Jerry Lee Lewis
TTITLE2=Soul Man - Sam and Dave
TTITLE3=Green Onions - Booker T. and the MG's
TTITLE4=That's Where Your Heartaches Begin - Elvis Presley
TTITLE5=Love and Happiness - Al Green
TTITLE6=Soul Finger - The Bar-Kays
TTITLE7=Walkin' the Dog - Rufus Thomas
TTITLE8=Knock on Wood - Eddie Floyd
TTITLE9=Blue Suede Shoes - Carl Perkins
TTITLE10=Wooly Bully - Sam the Sham and the Pharoahs
TTITLE11=Let's Do It Again - The Staple Singers
TTITLE12=Don't Let Go - Isaac Hayes
TTITLE13=The Letter - The Box Tops
TTITLE14=Every Day I Have The Blues - B.B. King
TTITLE15=B A B Y - Carla Thomas
TTITLE16=My Happiness - Elvis Presley
TTITLE17=(Sittin' On) The Dock Of The Bay - Otis Redding
EXTD=YEAR: 1996 ID3G:   0
EXTT0=by Rufus Thomas
EXTT1=Great Balls of Fire
EXTT2=Soul Man
EXTT3=Green Onions
EXTT4=That's When Your Heartaches Begin
EXTT5=Love and Happiness
EXTT6=Soul Finger
EXTT7=Walkin' the Dog
EXTT8=Knock On Wood
EXTT9=Blue Suede Shoes
EXTT10=Wooly Bully
EXTT11=Let's Do It Again
EXTT12=Don't Let Go
EXTT13=The Letter
EXTT14=Every Day I Have The Blues
EXTT15=B-A-B-Y
EXTT16=My Happiness
EXTT17=(Sittin' On) The Dock Of The Bay
PLAYORDER=
